<svg xmlns="http://www.w3.org/2000/svg" version="1.0" width="400.000000pt" height="300.000000pt" viewBox="0 0 400.000000 300.000000" preserveAspectRatio="xMidYMid meet">
<style>
	.style0{
		fill:	#000000;
	}
</style><metadata>
Created by potrace 1.11, written by Peter Selinger 2001-2013
</metadata>
<g class="style0">
<path d="M200 50 l0 50 -100 -0 -100 -0 0 50 0 50 100 -0 100 -0 0 50 0 50 50 -0 50 -0 0 -50 0 -50 50 -0 50 -0 0 -50 0 -50 -50 -0 -50 -0 0 -50 0 -50 -50 -0 -50 -0 0 50zm100 100l0 50 -50 -0 -50 -0 0 -50 0 -50 50 -0 50 -0 0 50z"/>
</g>
</svg>
