<?xml version="1.0" encoding="utf-8"?>
<!-- Generator: Adobe Illustrator 15.1.0, SVG Export Plug-In  -->
<!DOCTYPE svg PUBLIC "-//W3C//DTD SVG 1.1//EN" "http://www.w3.org/Graphics/SVG/1.1/DTD/svg11.dtd" [
	<!ENTITY ns_flows "http://ns.adobe.com/Flows/1.0/">
]>
<svg version="1.1"
	 xmlns="http://www.w3.org/2000/svg" xmlns:xlink="http://www.w3.org/1999/xlink" xmlns:a="http://ns.adobe.com/AdobeSVGViewerExtensions/3.0/"
	 x="0px" y="0px" width="400px" height="300px" viewBox="0 0 400 300" overflow="visible" enable-background="new 0 0 400 300"
	 xml:space="preserve">
<defs>
</defs>
<g>
	<g>
		<g>
			<path fill="#E74C3C" d="M100,190c0,5.5-4.5,10-10,10H10c-5.5,0-10-4.5-10-10v-80c0-5.5,4.5-10,10-10h80c5.5,0,10,4.5,10,10V190z"
				/>
		</g>
		<g>
			<path fill="#E74C3C" d="M200,190c0,5.5-4.5,10-10,10h-80c-5.5,0-10-4.5-10-10v-80c0-5.5,4.5-10,10-10h80c5.5,0,10,4.5,10,10V190z
				"/>
		</g>
		<g>
			<path fill="#E74C3C" d="M300,90c0,5.5-4.5,10-10,10h-80c-5.5,0-10-4.5-10-10V10c0-5.5,4.5-10,10-10h80c5.5,0,10,4.5,10,10V90z"/>
		</g>
		<g>
			<path fill="#E74C3C" d="M300,290c0,5.5-4.5,10-10,10h-80c-5.5,0-10-4.5-10-10v-80c0-5.5,4.5-10,10-10h80c5.5,0,10,4.5,10,10V290z
				"/>
		</g>
		<g>
			<path fill="#E74C3C" d="M400,190c0,5.5-4.5,10-10,10h-80c-5.5,0-10-4.5-10-10v-80c0-5.5,4.5-10,10-10h80c5.5,0,10,4.5,10,10V190z
				"/>
		</g>
		<g>
			<path fill="#E74C3C" d="M149,150c0,27.5-22.05,50-49,50s-49-22.5-49-50s22.05-50,49-50S149,122.5,149,150z"/>
		</g>
	</g>
</g>
</svg>
